<?xml version="1.0" encoding="UTF-8" standalone="no"?>
<!-- Created with Inkscape (http://www.inkscape.org/) -->

<svg
   xmlns:dc="http://purl.org/dc/elements/1.1/"
   xmlns:cc="http://creativecommons.org/ns#"
   xmlns:rdf="http://www.w3.org/1999/02/22-rdf-syntax-ns#"
   xmlns:svg="http://www.w3.org/2000/svg"
   xmlns="http://www.w3.org/2000/svg"
   xmlns:sodipodi="http://sodipodi.sourceforge.net/DTD/sodipodi-0.dtd"
   xmlns:inkscape="http://www.inkscape.org/namespaces/inkscape"
   width="512"
   height="512"
   viewBox="0 0 135.46666 135.46667"
   version="1.1"
   id="svg1016"
   inkscape:version="0.92.3 (2405546, 2018-03-11)"
   sodipodi:docname="icons2.svg"
   inkscape:export-filename="C:\Users\aseab\OneDrive\Documents\Projects\A-Game-By-Its-Cover-2018\Unity\v0.2\bloom\Assets\Sprites\tileSheet2.png"
   inkscape:export-xdpi="96"
   inkscape:export-ydpi="96">
  <defs
     id="defs1010" />
  <sodipodi:namedview
     id="base"
     pagecolor="#ffffff"
     bordercolor="#666666"
     borderopacity="1.0"
     inkscape:pageopacity="0.0"
     inkscape:pageshadow="2"
     inkscape:zoom="0.7"
     inkscape:cx="184.39386"
     inkscape:cy="130.18772"
     inkscape:document-units="px"
     inkscape:current-layer="layer1"
     showgrid="true"
     units="px"
     inkscape:window-width="1920"
     inkscape:window-height="1017"
     inkscape:window-x="-8"
     inkscape:window-y="-8"
     inkscape:window-maximized="1"
     objecttolerance="1"
     gridtolerance="1"
     guidetolerance="1">
    <inkscape:grid
       type="xygrid"
       id="grid1573"
       spacingx="16.933333"
       spacingy="16.933333"
       empspacing="4" />
  </sodipodi:namedview>
  <metadata
     id="metadata1013">
    <rdf:RDF>
      <cc:Work
         rdf:about="">
        <dc:format>image/svg+xml</dc:format>
        <dc:type
           rdf:resource="http://purl.org/dc/dcmitype/StillImage" />
        <dc:title></dc:title>
      </cc:Work>
    </rdf:RDF>
  </metadata>
  <g
     inkscape:label="Layer 1"
     inkscape:groupmode="layer"
     id="layer1"
     transform="translate(0,-161.53331)">
    <path
       style="opacity:1;vector-effect:none;fill:#3b1f1e;fill-opacity:1;stroke:#784c00;stroke-width:2.64583325;stroke-linecap:square;stroke-linejoin:round;stroke-miterlimit:4;stroke-dasharray:none;stroke-dashoffset:0;stroke-opacity:1"
       d="m 109.1432,172.72747 a 13.518705,13.518705 0 0 0 -1.35134,0.0129 13.518705,13.518705 0 0 0 -10.275851,5.78001 14.380502,14.380502 0 0 0 -7.270355,-1.49603 14.380502,14.380502 0 0 0 -13.4953,15.21406 14.380502,14.380502 0 0 0 0.85938,4.07417 11.440613,11.440613 0 0 0 -3.63544,9.05526 11.440613,11.440613 0 0 0 12.10417,10.7363 11.440613,11.440613 0 0 0 5.45031,-1.7787 11.440613,11.440613 0 0 0 9.109516,3.69021 11.440613,11.440613 0 0 0 7.48224,-3.42615 11.057357,11.057357 0 0 0 7.39231,2.27428 11.057357,11.057357 0 0 0 10.37714,-11.69851 11.057357,11.057357 0 0 0 -7.35665,-9.76529 13.518705,13.518705 0 0 0 3.56102,-9.97305 13.518705,13.518705 0 0 0 -12.95115,-12.69948 z"
       id="path925"
       inkscape:connector-curvature="0" />
    <path
       style="fill:#3b1f1e;fill-opacity:1;stroke:#784c00;stroke-width:2.64583325;stroke-linecap:round;stroke-linejoin:round;stroke-miterlimit:4;stroke-dasharray:none;stroke-opacity:1"
       d="m 16.139575,210.4812 11.90625,10.58334 9.52501,-12.43542 12.96457,9.525 9.26043,-8.20208 -15.08125,-13.75834 9.78957,-11.90625 -13.49375,-11.1125 -11.37708,15.61042 -14.2875,-12.7 -8.7312521,15.34583 19.5791721,9.78959 z"
       id="path929"
       inkscape:connector-curvature="0" />
    <path
       inkscape:connector-curvature="0"
       style="fill:#ffffff;fill-opacity:1;stroke:#784c00;stroke-width:2.64583325;stroke-linecap:butt;stroke-linejoin:miter;stroke-miterlimit:4;stroke-dasharray:none;stroke-opacity:1"
       d="m 82.068378,243.48697 v 9.57409 l 9.12399,0.48007 -5.82083,6.87917 -3.30316,-5.78053 v 22.71386 l 22.754162,6.35 5.29167,-16.93333 13.22917,10.58333 0.52916,-33.86666 z m 15.29828,12.23801 10.054172,0.52917 -5.82083,6.87916 z"
       id="path939" />
    <path
       id="path947"
       d="m 14.335042,243.48696 v 9.57409 l 9.123994,0.48008 -5.820844,6.87916 -3.30315,-5.78052 v 22.71386 c 5.50223,13.04975 19.531624,9.99633 22.754154,6.35 l 1.8521,-7.67291 16.40417,-7.14376 0.79374,-25.4 c -5.33921,-9.72134 -27.32056,-19.21111 -41.804164,0 z m 15.298284,12.23802 10.05417,0.52916 -5.82083,6.87917 z"
       style="fill:#ffffff;fill-opacity:1;stroke:#784c00;stroke-width:2.64583325;stroke-linecap:butt;stroke-linejoin:miter;stroke-miterlimit:4;stroke-dasharray:none;stroke-opacity:1"
       inkscape:connector-curvature="0"
       sodipodi:nodetypes="ccccccccccccccc" />
    <path
       style="fill:none;stroke:#784c00;stroke-width:2.6458333;stroke-linecap:round;stroke-linejoin:miter;stroke-miterlimit:4;stroke-dasharray:none;stroke-opacity:1"
       d="m 90.886263,272.11588 -1.606399,7.72901"
       id="path1575"
       inkscape:connector-curvature="0" />
    <path
       style="fill:none;stroke:#784c00;stroke-width:2.6458333;stroke-linecap:round;stroke-linejoin:miter;stroke-miterlimit:4;stroke-dasharray:none;stroke-opacity:1"
       d="m 99.768704,272.70866 -1.937128,8.2762"
       id="path1577"
       inkscape:connector-curvature="0" />
    <path
       style="fill:none;stroke:#784c00;stroke-width:2.6458333;stroke-linecap:round;stroke-linejoin:miter;stroke-opacity:1;stroke-miterlimit:4;stroke-dasharray:none"
       d="m 21.381562,274.0148 -2.004521,8.95352"
       id="path1579"
       inkscape:connector-curvature="0" />
    <path
       style="fill:none;stroke:#784c00;stroke-width:2.6458333;stroke-linecap:round;stroke-linejoin:miter;stroke-opacity:1;stroke-miterlimit:4;stroke-dasharray:none"
       d="m 29.666917,275.21751 -1.069079,11.09168"
       id="path1581"
       inkscape:connector-curvature="0" />
  </g>
</svg>
